<?xml version="1.0" encoding="UTF-8"?>
<svg xmlns="http://www.w3.org/2000/svg" width="267" height="294" viewBox="0 0 267 294">
  <rect width="100%" height="100%" fill="white"/>
  <path d="M 152.00 11.00 Q 165.00 11.00 167.00 12.00 Q 169.00 13.00 171.50 17.00 Q 174.00 21.00 176.50 35.50 Q 179.00 50.00 188.00 52.50 Q 197.00 55.00 197.00 56.00 Q 197.00 57.00 189.00 56.00 Q 181.00 55.00 184.50 69.00 Q 188.00 83.00 193.50 87.50 Q 199.00 92.00 198.00 97.50 Q 197.00 103.00 199.50 110.00 Q 202.00 117.00 201.00 135.00 Q 200.00 153.00 193.50 162.50 Q 187.00 172.00 190.50 172.50 Q 194.00 173.00 195.00 178.00 Q 196.00 183.00 194.50 183.00 Q 193.00 183.00 187.00 178.50 Q 181.00 174.00 175.50 168.50 Q 170.00 163.00 162.50 150.50 Q 155.00 138.00 144.50 127.50 Q 134.00 117.00 133.00 118.00 Q 132.00 119.00 135.00 123.00 Q 138.00 127.00 137.50 130.00 Q 137.00 133.00 135.00 133.00 Q 133.00 133.00 128.00 137.00 Q 123.00 141.00 123.00 139.50 Q 123.00 138.00 128.50 134.00 Q 134.00 130.00 129.50 122.50 Q 125.00 115.00 121.50 115.50 Q 118.00 116.00 115.00 119.00 Q 112.00 122.00 111.00 127.50 Q 110.00 133.00 112.00 132.50 Q 114.00 132.00 117.50 136.00 Q 121.00 140.00 121.00 141.50 Q 121.00 143.00 120.00 143.00 Q 119.00 143.00 116.00 141.00 Q 113.00 139.00 115.00 145.00 Q 117.00 151.00 131.00 171.00 Q 145.00 191.00 158.50 220.50 Q 172.00 250.00 180.50 259.00 Q 189.00 268.00 205.00 280.00 Q 221.00 292.00 217.00 291.50 Q 213.00 291.00 209.50 288.50 Q 206.00 286.00 188.00 270.50 Q 170.00 255.00 154.00 259.00 Q 138.00 263.00 128.00 262.00 Q 118.00 261.00 115.50 255.50 Q 113.00 250.00 100.00 188.00 Q 87.00 126.00 85.00 120.50 Q 83.00 115.00 77.50 84.00 Q 72.00 53.00 71.50 41.50 Q 71.00 30.00 72.50 27.50 Q 74.00 25.00 91.00 20.50 Q 108.00 16.00 114.50 16.00 Q 121.00 16.00 121.50 15.00 Q 122.00 14.00 129.00 13.00 Q 136.00 12.00 150.00 12.00 Q 164.00 12.00 168.00 15.00 Q 172.00 18.00 175.00 34.00 Q 178.00 50.00 182.50 52.50 L 187.00 55.00" stroke="#000000" stroke-width="7" stroke-linecap="round" stroke-linejoin="round" fill="none"/>
  <path d="M 136.00 13.00 Q 164.00 13.00 166.50 14.00 L 169.00 15.00" stroke="#000000" stroke-width="7" stroke-linecap="round" stroke-linejoin="round" fill="none"/>
  <path d="M 127.00 14.00 L 137.00 14.00" stroke="#000000" stroke-width="7" stroke-linecap="round" stroke-linejoin="round" fill="none"/>
  <path d="M 150.00 14.00 Q 164.00 14.00 167.50 16.00 Q 171.00 18.00 174.00 34.00 Q 177.00 50.00 180.50 52.00 L 184.00 54.00" stroke="#000000" stroke-width="7" stroke-linecap="round" stroke-linejoin="round" fill="none"/>
  <path d="M 123.00 15.00 Q 131.00 15.00 131.50 16.00 Q 132.00 17.00 142.50 16.00 L 153.00 15.00" stroke="#000000" stroke-width="7" stroke-linecap="round" stroke-linejoin="round" fill="none"/>
  <path d="M 114.00 16.00 Q 123.00 16.00 123.50 17.00 Q 124.00 18.00 126.50 17.00 Q 129.00 16.00 130.50 17.00 Q 132.00 18.00 141.50 17.00 L 151.00 16.00" stroke="#000000" stroke-width="7" stroke-linecap="round" stroke-linejoin="round" fill="none"/>
  <path d="M 108.00 17.00 L 130.00 18.00" stroke="#000000" stroke-width="7" stroke-linecap="round" stroke-linejoin="round" fill="none"/>
  <path d="M 167.00 17.00 Q 171.00 21.00 173.50 35.00 L 176.00 49.00" stroke="#000000" stroke-width="7" stroke-linecap="round" stroke-linejoin="round" fill="none"/>
  <path d="M 107.00 18.00 Q 122.00 18.00 123.50 19.00 L 125.00 20.00" stroke="#000000" stroke-width="7" stroke-linecap="round" stroke-linejoin="round" fill="none"/>
  <path d="M 98.00 19.00 L 122.00 20.00" stroke="#000000" stroke-width="7" stroke-linecap="round" stroke-linejoin="round" fill="none"/>
  <path d="M 96.00 20.00 L 119.00 21.00" stroke="#000000" stroke-width="7" stroke-linecap="round" stroke-linejoin="round" fill="none"/>
  <path d="M 90.00 21.00 L 115.00 21.00" stroke="#000000" stroke-width="7" stroke-linecap="round" stroke-linejoin="round" fill="none"/>
  <path d="M 85.00 22.00 L 98.00 22.00" stroke="#000000" stroke-width="7" stroke-linecap="round" stroke-linejoin="round" fill="none"/>
  <path d="M 102.00 22.00 L 113.00 22.00" stroke="#000000" stroke-width="7" stroke-linecap="round" stroke-linejoin="round" fill="none"/>
  <path d="M 84.00 23.00 L 95.00 23.00" stroke="#000000" stroke-width="7" stroke-linecap="round" stroke-linejoin="round" fill="none"/>
  <path d="M 102.00 23.00 L 107.00 23.00" stroke="#000000" stroke-width="7" stroke-linecap="round" stroke-linejoin="round" fill="none"/>
  <path d="M 81.00 24.00 L 90.00 24.00" stroke="#000000" stroke-width="7" stroke-linecap="round" stroke-linejoin="round" fill="none"/>
  <path d="M 101.00 24.00 Q 105.00 24.00 104.00 28.50 Q 103.00 33.00 110.00 72.00 Q 117.00 111.00 124.00 111.50 Q 131.00 112.00 140.00 118.50 Q 149.00 125.00 157.50 135.50 Q 166.00 146.00 169.50 153.00 Q 173.00 160.00 178.00 165.00 Q 183.00 170.00 183.50 168.50 Q 184.00 167.00 186.00 166.50 Q 188.00 166.00 192.00 159.00 Q 196.00 152.00 196.50 146.50 Q 197.00 141.00 190.00 108.00 Q 183.00 75.00 181.50 72.00 Q 180.00 69.00 180.00 64.00 Q 180.00 59.00 178.50 56.00 Q 177.00 53.00 177.00 52.00 Q 177.00 51.00 179.00 52.50 Q 181.00 54.00 181.00 56.50 Q 181.00 59.00 179.50 56.00 L 178.00 53.00" stroke="#000000" stroke-width="7" stroke-linecap="round" stroke-linejoin="round" fill="none"/>
  <path d="M 77.00 25.00 L 87.00 25.00" stroke="#000000" stroke-width="7" stroke-linecap="round" stroke-linejoin="round" fill="none"/>
  <path d="M 101.00 25.00 Q 103.00 25.00 102.50 29.00 Q 102.00 33.00 109.00 72.00 Q 116.00 111.00 117.00 112.00 Q 118.00 113.00 124.00 113.00 Q 130.00 113.00 131.50 114.50 L 133.00 116.00" stroke="#000000" stroke-width="7" stroke-linecap="round" stroke-linejoin="round" fill="none"/>
  <path d="M 74.00 26.00 Q 85.00 27.00 85.00 28.00 Q 85.00 29.00 81.00 28.50 Q 77.00 28.00 75.50 31.00 Q 74.00 34.00 75.50 47.50 Q 77.00 61.00 88.50 119.50 Q 100.00 178.00 102.00 182.50 Q 104.00 187.00 110.00 216.50 Q 116.00 246.00 118.00 251.00 Q 120.00 256.00 122.00 257.50 Q 124.00 259.00 126.00 258.00 Q 128.00 257.00 125.00 247.50 Q 122.00 238.00 119.50 223.50 Q 117.00 209.00 115.00 204.50 Q 113.00 200.00 114.00 196.00 Q 115.00 192.00 116.00 192.00 Q 117.00 192.00 119.00 200.00 Q 121.00 208.00 125.50 231.00 Q 130.00 254.00 132.50 256.00 Q 135.00 258.00 140.00 257.50 Q 145.00 257.00 145.50 256.00 Q 146.00 255.00 144.00 251.50 Q 142.00 248.00 135.00 212.00 Q 128.00 176.00 124.00 171.50 Q 120.00 167.00 118.50 162.50 Q 117.00 158.00 115.00 159.50 Q 113.00 161.00 115.00 170.50 Q 117.00 180.00 117.00 182.00 Q 117.00 184.00 115.50 183.50 Q 114.00 183.00 109.50 162.00 Q 105.00 141.00 104.50 136.00 Q 104.00 131.00 105.00 130.50 Q 106.00 130.00 104.50 129.50 Q 103.00 129.00 100.00 113.00 Q 97.00 97.00 98.50 98.00 Q 100.00 99.00 103.50 112.50 Q 107.00 126.00 110.50 120.00 Q 114.00 114.00 114.00 112.00 Q 114.00 110.00 107.50 76.00 Q 101.00 42.00 100.50 34.00 Q 100.00 26.00 101.00 26.00 Q 102.00 26.00 101.50 30.00 Q 101.00 34.00 108.00 72.50 Q 115.00 111.00 116.50 112.50 Q 118.00 114.00 124.00 114.00 Q 130.00 114.00 131.00 117.50 Q 132.00 121.00 134.50 124.00 Q 137.00 127.00 137.00 129.50 Q 137.00 132.00 135.50 132.00 Q 134.00 132.00 134.50 130.00 Q 135.00 128.00 130.50 121.50 Q 126.00 115.00 127.50 115.00 Q 129.00 115.00 129.50 117.00 L 130.00 119.00" stroke="#000000" stroke-width="7" stroke-linecap="round" stroke-linejoin="round" fill="none"/>
  <path d="M 74.00 27.00 L 78.00 27.00" stroke="#000000" stroke-width="7" stroke-linecap="round" stroke-linejoin="round" fill="none"/>
  <path d="M 81.00 27.00 L 84.00 27.00" stroke="#000000" stroke-width="7" stroke-linecap="round" stroke-linejoin="round" fill="none"/>
  <path d="M 73.00 28.00 L 76.00 28.00" stroke="#000000" stroke-width="7" stroke-linecap="round" stroke-linejoin="round" fill="none"/>
  <path d="M 73.00 29.00 Q 75.00 30.00 74.00 35.00 Q 73.00 40.00 74.50 50.50 Q 76.00 61.00 82.00 93.00 Q 88.00 125.00 86.00 120.00 Q 84.00 115.00 78.50 84.00 Q 73.00 53.00 72.00 43.50 Q 71.00 34.00 71.50 32.00 Q 72.00 30.00 73.00 30.00 Q 74.00 30.00 73.00 33.50 L 72.00 37.00" stroke="#000000" stroke-width="7" stroke-linecap="round" stroke-linejoin="round" fill="none"/>
  <path d="M 80.00 34.00 Q 85.00 35.00 85.00 36.50 Q 85.00 38.00 82.50 38.00 Q 80.00 38.00 80.00 36.50 Q 80.00 35.00 82.00 35.50 Q 84.00 36.00 82.50 36.50 Q 81.00 37.00 82.00 36.50 L 83.00 36.00" stroke="#000000" stroke-width="7" stroke-linecap="round" stroke-linejoin="round" fill="none"/>
  <path d="M 102.00 39.00 L 102.00 42.00" stroke="#000000" stroke-width="7" stroke-linecap="round" stroke-linejoin="round" fill="none"/>
  <path d="M 84.00 41.00 Q 86.00 41.00 85.00 43.50 Q 84.00 46.00 85.50 46.50 Q 87.00 47.00 87.50 51.50 Q 88.00 56.00 86.50 55.50 Q 85.00 55.00 84.50 51.00 Q 84.00 47.00 82.50 46.00 Q 81.00 45.00 81.00 43.50 Q 81.00 42.00 83.00 42.00 Q 85.00 42.00 84.00 43.00 L 83.00 44.00" stroke="#000000" stroke-width="7" stroke-linecap="round" stroke-linejoin="round" fill="none"/>
  <path d="M 85.00 48.00 Q 87.00 52.00 86.50 53.50 Q 86.00 55.00 85.50 52.00 L 85.00 49.00" stroke="#000000" stroke-width="7" stroke-linecap="round" stroke-linejoin="round" fill="none"/>
  <path d="M 75.00 55.00 L 75.00 58.00" stroke="#000000" stroke-width="7" stroke-linecap="round" stroke-linejoin="round" fill="none"/>
  <path d="M 191.00 55.00 Q 194.00 55.00 192.50 55.50 L 191.00 56.00" stroke="#000000" stroke-width="7" stroke-linecap="round" stroke-linejoin="round" fill="none"/>
  <path d="M 84.00 58.00 Q 89.00 58.00 88.50 61.50 Q 88.00 65.00 87.00 65.00 Q 86.00 65.00 85.00 62.00 Q 84.00 59.00 86.00 59.00 Q 88.00 59.00 87.50 61.50 L 87.00 64.00" stroke="#000000" stroke-width="7" stroke-linecap="round" stroke-linejoin="round" fill="none"/>
  <path d="M 201.00 59.00 Q 205.00 59.00 216.50 68.00 Q 228.00 77.00 233.50 79.00 Q 239.00 81.00 241.50 84.00 Q 244.00 87.00 245.00 89.00 Q 246.00 91.00 246.00 93.00 Q 246.00 95.00 245.00 95.00 Q 244.00 95.00 240.00 89.50 Q 236.00 84.00 233.00 83.00 Q 230.00 82.00 228.00 83.50 Q 226.00 85.00 229.50 89.50 Q 233.00 94.00 236.50 107.00 Q 240.00 120.00 239.00 121.00 Q 238.00 122.00 232.50 105.50 Q 227.00 89.00 229.50 91.50 Q 232.00 94.00 235.50 107.00 L 239.00 120.00" stroke="#000000" stroke-width="7" stroke-linecap="round" stroke-linejoin="round" fill="none"/>
  <path d="M 85.00 60.00 L 86.00 61.00" stroke="#000000" stroke-width="7" stroke-linecap="round" stroke-linejoin="round" fill="none"/>
  <path d="M 201.00 60.00 Q 205.00 60.00 215.00 68.00 Q 225.00 76.00 233.00 80.00 Q 241.00 84.00 243.00 89.00 Q 245.00 94.00 238.50 87.50 Q 232.00 81.00 228.00 83.50 Q 224.00 86.00 223.50 82.00 Q 223.00 78.00 212.00 69.50 Q 201.00 61.00 203.00 61.00 Q 205.00 61.00 209.50 65.50 Q 214.00 70.00 221.50 74.50 Q 229.00 79.00 227.00 81.50 Q 225.00 84.00 224.50 81.00 Q 224.00 78.00 221.00 75.50 L 218.00 73.00" stroke="#000000" stroke-width="7" stroke-linecap="round" stroke-linejoin="round" fill="none"/>
  <path d="M 106.00 62.00 L 106.00 65.00" stroke="#000000" stroke-width="7" stroke-linecap="round" stroke-linejoin="round" fill="none"/>
  <path d="M 204.00 62.00 L 213.00 70.00" stroke="#000000" stroke-width="7" stroke-linecap="round" stroke-linejoin="round" fill="none"/>
  <path d="M 181.00 63.00 Q 187.00 83.00 192.50 88.00 Q 198.00 93.00 196.50 98.00 Q 195.00 103.00 196.50 104.00 Q 198.00 105.00 199.50 111.00 Q 201.00 117.00 200.00 135.00 Q 199.00 153.00 192.50 162.50 Q 186.00 172.00 189.50 173.00 Q 193.00 174.00 194.00 178.00 Q 195.00 182.00 188.00 177.50 Q 181.00 173.00 176.00 168.00 Q 171.00 163.00 163.50 150.50 Q 156.00 138.00 145.50 127.50 Q 135.00 117.00 137.50 117.50 Q 140.00 118.00 148.00 126.00 Q 156.00 134.00 164.00 147.00 Q 172.00 160.00 176.00 164.50 Q 180.00 169.00 181.50 170.00 Q 183.00 171.00 186.00 168.50 Q 189.00 166.00 193.00 159.00 Q 197.00 152.00 197.50 146.50 Q 198.00 141.00 189.50 102.50 L 181.00 64.00" stroke="#000000" stroke-width="7" stroke-linecap="round" stroke-linejoin="round" fill="none"/>
  <path d="M 209.00 66.00 L 211.00 68.00" stroke="#000000" stroke-width="7" stroke-linecap="round" stroke-linejoin="round" fill="none"/>
  <path d="M 89.00 68.00 Q 91.00 68.00 92.00 73.50 Q 93.00 79.00 93.00 80.50 Q 93.00 82.00 91.00 82.00 Q 89.00 82.00 89.50 75.50 L 90.00 69.00" stroke="#000000" stroke-width="7" stroke-linecap="round" stroke-linejoin="round" fill="none"/>
  <path d="M 90.00 73.00 L 90.00 74.00" stroke="#000000" stroke-width="7" stroke-linecap="round" stroke-linejoin="round" fill="none"/>
  <path d="M 221.00 74.00 L 225.00 79.00" stroke="#000000" stroke-width="7" stroke-linecap="round" stroke-linejoin="round" fill="none"/>
  <path d="M 91.00 77.00 L 91.00 79.00" stroke="#000000" stroke-width="7" stroke-linecap="round" stroke-linejoin="round" fill="none"/>
  <path d="M 79.00 80.00 L 79.00 83.00" stroke="#000000" stroke-width="7" stroke-linecap="round" stroke-linejoin="round" fill="none"/>
  <path d="M 228.00 80.00 L 228.00 81.00" stroke="#000000" stroke-width="7" stroke-linecap="round" stroke-linejoin="round" fill="none"/>
  <path d="M 237.00 82.00 L 243.00 89.00" stroke="#000000" stroke-width="7" stroke-linecap="round" stroke-linejoin="round" fill="none"/>
  <path d="M 186.00 83.00 L 197.00 96.00" stroke="#000000" stroke-width="7" stroke-linecap="round" stroke-linejoin="round" fill="none"/>
  <path d="M 90.00 84.00 Q 94.00 84.00 95.00 89.00 Q 96.00 94.00 94.50 93.50 Q 93.00 93.00 91.50 90.00 Q 90.00 87.00 90.00 86.00 Q 90.00 85.00 91.50 85.00 Q 93.00 85.00 94.00 88.50 Q 95.00 92.00 94.00 90.50 L 93.00 89.00" stroke="#000000" stroke-width="7" stroke-linecap="round" stroke-linejoin="round" fill="none"/>
  <path d="M 110.00 84.00 L 110.00 87.00" stroke="#000000" stroke-width="7" stroke-linecap="round" stroke-linejoin="round" fill="none"/>
  <path d="M 187.00 85.00 L 187.00 87.00" stroke="#000000" stroke-width="7" stroke-linecap="round" stroke-linejoin="round" fill="none"/>
  <path d="M 189.00 87.00 Q 195.00 96.00 194.00 99.50 Q 193.00 103.00 195.00 104.50 L 197.00 106.00" stroke="#000000" stroke-width="7" stroke-linecap="round" stroke-linejoin="round" fill="none"/>
  <path d="M 81.00 90.00 L 81.00 93.00" stroke="#000000" stroke-width="7" stroke-linecap="round" stroke-linejoin="round" fill="none"/>
  <path d="M 188.00 90.00 Q 191.00 90.00 192.00 91.50 Q 193.00 93.00 192.00 92.50 Q 191.00 92.00 190.50 93.00 Q 190.00 94.00 192.00 95.00 Q 194.00 96.00 193.00 99.50 Q 192.00 103.00 193.50 104.00 L 195.00 105.00" stroke="#000000" stroke-width="7" stroke-linecap="round" stroke-linejoin="round" fill="none"/>
  <path d="M 229.00 90.00 L 237.00 118.00" stroke="#000000" stroke-width="7" stroke-linecap="round" stroke-linejoin="round" fill="none"/>
  <path d="M 188.00 91.00 Q 193.00 96.00 192.00 97.50 Q 191.00 99.00 192.00 99.50 Q 193.00 100.00 192.00 101.50 Q 191.00 103.00 192.00 104.00 Q 193.00 105.00 192.00 106.00 L 191.00 107.00" stroke="#000000" stroke-width="7" stroke-linecap="round" stroke-linejoin="round" fill="none"/>
  <path d="M 243.00 91.00 L 244.00 92.00" stroke="#000000" stroke-width="7" stroke-linecap="round" stroke-linejoin="round" fill="none"/>
  <path d="M 189.00 95.00 Q 191.00 97.00 190.00 96.50 L 189.00 96.00" stroke="#000000" stroke-width="7" stroke-linecap="round" stroke-linejoin="round" fill="none"/>
  <path d="M 246.00 97.00 Q 248.00 97.00 250.50 104.50 Q 253.00 112.00 255.00 121.50 Q 257.00 131.00 257.00 132.50 Q 257.00 134.00 256.00 134.00 Q 255.00 134.00 250.50 118.00 Q 246.00 102.00 246.50 100.00 L 247.00 98.00" stroke="#000000" stroke-width="7" stroke-linecap="round" stroke-linejoin="round" fill="none"/>
  <path d="M 98.00 98.00 L 98.00 99.00" stroke="#000000" stroke-width="7" stroke-linecap="round" stroke-linejoin="round" fill="none"/>
  <path d="M 82.00 99.00 L 82.00 100.00" stroke="#000000" stroke-width="7" stroke-linecap="round" stroke-linejoin="round" fill="none"/>
  <path d="M 190.00 99.00 L 191.00 104.00" stroke="#000000" stroke-width="7" stroke-linecap="round" stroke-linejoin="round" fill="none"/>
  <path d="M 247.00 100.00 L 249.00 106.00" stroke="#000000" stroke-width="7" stroke-linecap="round" stroke-linejoin="round" fill="none"/>
  <path d="M 99.00 102.00 L 100.00 105.00" stroke="#000000" stroke-width="7" stroke-linecap="round" stroke-linejoin="round" fill="none"/>
  <path d="M 83.00 103.00 L 84.00 106.00" stroke="#000000" stroke-width="7" stroke-linecap="round" stroke-linejoin="round" fill="none"/>
  <path d="M 100.00 107.00 Q 104.00 124.00 105.50 125.50 Q 107.00 127.00 111.00 119.50 L 115.00 112.00" stroke="#000000" stroke-width="7" stroke-linecap="round" stroke-linejoin="round" fill="none"/>
  <path d="M 84.00 109.00 L 84.00 110.00" stroke="#000000" stroke-width="7" stroke-linecap="round" stroke-linejoin="round" fill="none"/>
  <path d="M 250.00 109.00 L 250.00 110.00" stroke="#000000" stroke-width="7" stroke-linecap="round" stroke-linejoin="round" fill="none"/>
  <path d="M 101.00 110.00 Q 103.00 124.00 105.00 126.00 Q 107.00 128.00 109.50 123.00 Q 112.00 118.00 114.00 116.00 Q 116.00 114.00 117.50 114.50 L 119.00 115.00" stroke="#000000" stroke-width="7" stroke-linecap="round" stroke-linejoin="round" fill="none"/>
  <path d="M 192.00 110.00 Q 198.00 111.00 197.50 112.00 Q 197.00 113.00 198.50 115.00 Q 200.00 117.00 199.50 119.00 Q 199.00 121.00 197.00 121.00 Q 195.00 121.00 193.50 116.00 L 192.00 111.00" stroke="#000000" stroke-width="7" stroke-linecap="round" stroke-linejoin="round" fill="none"/>
  <path d="M 194.00 112.00 Q 198.00 115.00 198.00 117.50 Q 198.00 120.00 196.50 120.00 Q 195.00 120.00 194.50 116.50 Q 194.00 113.00 195.50 114.00 Q 197.00 115.00 196.50 117.00 L 196.00 119.00" stroke="#000000" stroke-width="7" stroke-linecap="round" stroke-linejoin="round" fill="none"/>
  <path d="M 251.00 112.00 L 251.00 113.00" stroke="#000000" stroke-width="7" stroke-linecap="round" stroke-linejoin="round" fill="none"/>
  <path d="M 85.00 114.00 L 86.00 119.00" stroke="#000000" stroke-width="7" stroke-linecap="round" stroke-linejoin="round" fill="none"/>
  <path d="M 121.00 114.00 L 124.00 114.00" stroke="#000000" stroke-width="7" stroke-linecap="round" stroke-linejoin="round" fill="none"/>
  <path d="M 195.00 114.00 L 195.00 115.00" stroke="#000000" stroke-width="7" stroke-linecap="round" stroke-linejoin="round" fill="none"/>
  <path d="M 117.00 115.00 L 111.00 123.00" stroke="#000000" stroke-width="7" stroke-linecap="round" stroke-linejoin="round" fill="none"/>
  <path d="M 116.00 116.00 L 114.00 118.00" stroke="#000000" stroke-width="7" stroke-linecap="round" stroke-linejoin="round" fill="none"/>
  <path d="M 252.00 117.00 L 254.00 123.00" stroke="#000000" stroke-width="7" stroke-linecap="round" stroke-linejoin="round" fill="none"/>
  <path d="M 137.00 118.00 L 156.00 137.00" stroke="#000000" stroke-width="7" stroke-linecap="round" stroke-linejoin="round" fill="none"/>
  <path d="M 140.00 120.00 L 151.00 131.00" stroke="#000000" stroke-width="7" stroke-linecap="round" stroke-linejoin="round" fill="none"/>
  <path d="M 133.00 123.00 Q 135.00 125.00 134.00 124.50 L 133.00 124.00" stroke="#000000" stroke-width="7" stroke-linecap="round" stroke-linejoin="round" fill="none"/>
  <path d="M 196.00 123.00 Q 198.00 123.00 198.00 124.50 Q 198.00 126.00 197.00 125.50 L 196.00 125.00" stroke="#000000" stroke-width="7" stroke-linecap="round" stroke-linejoin="round" fill="none"/>
  <path d="M 103.00 125.00 Q 106.00 129.00 108.00 127.50 Q 110.00 126.00 109.50 129.50 Q 109.00 133.00 110.00 134.00 Q 111.00 135.00 112.50 134.00 Q 114.00 133.00 117.00 136.50 Q 120.00 140.00 119.50 141.00 Q 119.00 142.00 116.50 139.50 Q 114.00 137.00 113.00 137.50 Q 112.00 138.00 114.00 144.50 Q 116.00 151.00 130.00 171.00 Q 144.00 191.00 157.50 220.50 Q 171.00 250.00 180.00 259.50 Q 189.00 269.00 203.00 279.50 Q 217.00 290.00 215.00 290.00 Q 213.00 290.00 204.00 283.50 Q 195.00 277.00 182.50 265.50 Q 170.00 254.00 154.00 258.00 Q 138.00 262.00 131.00 262.00 Q 124.00 262.00 121.00 260.50 Q 118.00 259.00 116.00 254.50 Q 114.00 250.00 106.50 214.50 Q 99.00 179.00 101.00 183.00 Q 103.00 187.00 109.00 216.50 Q 115.00 246.00 117.00 251.00 Q 119.00 256.00 121.50 258.00 Q 124.00 260.00 125.50 260.00 Q 127.00 260.00 128.00 258.50 Q 129.00 257.00 126.00 247.50 Q 123.00 238.00 120.50 223.50 Q 118.00 209.00 116.00 204.50 Q 114.00 200.00 114.50 196.50 Q 115.00 193.00 117.50 200.50 Q 120.00 208.00 124.50 231.00 Q 129.00 254.00 132.00 256.50 Q 135.00 259.00 140.00 258.50 Q 145.00 258.00 146.00 256.50 Q 147.00 255.00 145.00 251.50 Q 143.00 248.00 136.00 212.00 Q 129.00 176.00 125.50 170.50 Q 122.00 165.00 121.00 165.00 Q 120.00 165.00 118.50 161.00 Q 117.00 157.00 114.50 159.00 Q 112.00 161.00 113.50 172.00 Q 115.00 183.00 110.50 162.00 Q 106.00 141.00 105.50 136.50 Q 105.00 132.00 106.00 131.00 Q 107.00 130.00 107.00 133.00 L 107.00 136.00" stroke="#000000" stroke-width="7" stroke-linecap="round" stroke-linejoin="round" fill="none"/>
  <path d="M 254.00 125.00 L 255.00 128.00" stroke="#000000" stroke-width="7" stroke-linecap="round" stroke-linejoin="round" fill="none"/>
  <path d="M 88.00 127.00 L 88.00 128.00" stroke="#000000" stroke-width="7" stroke-linecap="round" stroke-linejoin="round" fill="none"/>
  <path d="M 136.00 129.00 L 135.00 131.00" stroke="#000000" stroke-width="7" stroke-linecap="round" stroke-linejoin="round" fill="none"/>
  <path d="M 255.00 131.00 L 255.00 132.00" stroke="#000000" stroke-width="7" stroke-linecap="round" stroke-linejoin="round" fill="none"/>
  <path d="M 89.00 132.00 Q 99.00 173.00 98.50 175.00 Q 98.00 177.00 93.50 155.00 L 89.00 133.00" stroke="#000000" stroke-width="7" stroke-linecap="round" stroke-linejoin="round" fill="none"/>
  <path d="M 106.00 132.00 L 106.00 134.00" stroke="#000000" stroke-width="7" stroke-linecap="round" stroke-linejoin="round" fill="none"/>
  <path d="M 132.00 132.00 Q 125.00 140.00 124.50 139.00 Q 124.00 138.00 126.00 136.50 L 128.00 135.00" stroke="#000000" stroke-width="7" stroke-linecap="round" stroke-linejoin="round" fill="none"/>
  <path d="M 109.00 134.00 Q 111.00 136.00 112.50 135.00 Q 114.00 134.00 116.50 137.00 Q 119.00 140.00 117.50 139.00 L 116.00 138.00" stroke="#000000" stroke-width="7" stroke-linecap="round" stroke-linejoin="round" fill="none"/>
  <path d="M 109.00 135.00 Q 111.00 137.00 112.50 136.00 Q 114.00 135.00 112.00 138.00 Q 110.00 141.00 116.00 152.50 Q 122.00 164.00 132.50 177.50 Q 143.00 191.00 155.50 219.50 Q 168.00 248.00 177.00 258.00 L 186.00 268.00" stroke="#000000" stroke-width="7" stroke-linecap="round" stroke-linejoin="round" fill="none"/>
  <path d="M 110.00 137.00 Q 109.00 141.00 113.50 149.00 L 118.00 157.00" stroke="#000000" stroke-width="7" stroke-linecap="round" stroke-linejoin="round" fill="none"/>
  <path d="M 257.00 137.00 Q 259.00 137.00 262.00 142.50 Q 265.00 148.00 265.00 163.00 L 265.00 178.00" stroke="#000000" stroke-width="7" stroke-linecap="round" stroke-linejoin="round" fill="none"/>
  <path d="M 107.00 138.00 Q 116.00 156.00 113.50 158.00 Q 111.00 160.00 109.50 150.00 L 108.00 140.00" stroke="#000000" stroke-width="7" stroke-linecap="round" stroke-linejoin="round" fill="none"/>
  <path d="M 257.00 138.00 Q 264.00 148.00 264.00 158.50 L 264.00 169.00" stroke="#000000" stroke-width="7" stroke-linecap="round" stroke-linejoin="round" fill="none"/>
  <path d="M 157.00 139.00 L 158.00 140.00" stroke="#000000" stroke-width="7" stroke-linecap="round" stroke-linejoin="round" fill="none"/>
  <path d="M 257.00 139.00 Q 263.00 148.00 263.00 151.50 L 263.00 155.00" stroke="#000000" stroke-width="7" stroke-linecap="round" stroke-linejoin="round" fill="none"/>
  <path d="M 239.00 140.00 Q 241.00 140.00 242.50 143.00 Q 244.00 146.00 244.00 149.50 Q 244.00 153.00 242.50 153.00 Q 241.00 153.00 239.50 147.00 Q 238.00 141.00 239.50 141.50 Q 241.00 142.00 242.00 147.00 Q 243.00 152.00 241.00 147.50 Q 239.00 143.00 240.50 146.00 L 242.00 149.00" stroke="#000000" stroke-width="7" stroke-linecap="round" stroke-linejoin="round" fill="none"/>
  <path d="M 257.00 140.00 L 258.00 142.00" stroke="#000000" stroke-width="7" stroke-linecap="round" stroke-linejoin="round" fill="none"/>
  <path d="M 109.00 143.00 L 114.00 156.00" stroke="#000000" stroke-width="7" stroke-linecap="round" stroke-linejoin="round" fill="none"/>
  <path d="M 160.00 143.00 L 166.00 150.00" stroke="#000000" stroke-width="7" stroke-linecap="round" stroke-linejoin="round" fill="none"/>
  <path d="M 252.00 144.00 Q 257.00 148.00 257.00 152.00 Q 257.00 156.00 255.50 156.50 Q 254.00 157.00 253.00 151.00 Q 252.00 145.00 254.00 146.50 Q 256.00 148.00 255.50 152.00 Q 255.00 156.00 254.00 151.50 Q 253.00 147.00 254.00 148.00 L 255.00 149.00" stroke="#000000" stroke-width="7" stroke-linecap="round" stroke-linejoin="round" fill="none"/>
  <path d="M 151.00 145.00 Q 154.00 145.00 154.00 146.50 Q 154.00 148.00 152.50 148.50 Q 151.00 149.00 152.50 152.00 Q 154.00 155.00 151.00 157.50 Q 148.00 160.00 146.50 160.00 Q 145.00 160.00 144.00 158.50 Q 143.00 157.00 142.00 159.00 Q 141.00 161.00 137.50 161.00 Q 134.00 161.00 134.00 159.00 Q 134.00 157.00 136.00 154.50 Q 138.00 152.00 142.50 149.00 Q 147.00 146.00 150.00 146.00 Q 153.00 146.00 151.50 147.50 Q 150.00 149.00 151.50 152.00 Q 153.00 155.00 150.50 157.00 Q 148.00 159.00 145.50 157.50 Q 143.00 156.00 142.00 158.00 Q 141.00 160.00 138.00 160.00 Q 135.00 160.00 135.00 158.50 Q 135.00 157.00 141.00 152.00 Q 147.00 147.00 149.00 147.00 Q 151.00 147.00 150.00 149.00 Q 149.00 151.00 150.50 152.50 Q 152.00 154.00 150.00 156.00 Q 148.00 158.00 145.50 156.50 Q 143.00 155.00 141.50 157.00 Q 140.00 159.00 138.00 159.00 Q 136.00 159.00 138.50 155.50 Q 141.00 152.00 144.50 150.00 Q 148.00 148.00 149.00 150.50 Q 150.00 153.00 149.00 155.00 Q 148.00 157.00 146.00 155.50 Q 144.00 154.00 141.50 156.00 Q 139.00 158.00 138.00 157.50 Q 137.00 157.00 142.00 153.50 L 147.00 150.00" stroke="#000000" stroke-width="7" stroke-linecap="round" stroke-linejoin="round" fill="none"/>
  <path d="M 161.00 145.00 L 164.00 148.00" stroke="#000000" stroke-width="7" stroke-linecap="round" stroke-linejoin="round" fill="none"/>
  <path d="M 111.00 151.00 L 112.00 159.00" stroke="#000000" stroke-width="7" stroke-linecap="round" stroke-linejoin="round" fill="none"/>
  <path d="M 146.00 152.00 Q 149.00 154.00 148.50 155.00 Q 148.00 156.00 145.50 154.50 L 143.00 153.00" stroke="#000000" stroke-width="7" stroke-linecap="round" stroke-linejoin="round" fill="none"/>
  <path d="M 198.00 152.00 L 197.00 153.00" stroke="#000000" stroke-width="7" stroke-linecap="round" stroke-linejoin="round" fill="none"/>
  <path d="M 145.00 153.00 L 147.00 154.00" stroke="#000000" stroke-width="7" stroke-linecap="round" stroke-linejoin="round" fill="none"/>
  <path d="M 141.00 154.00 L 139.00 156.00" stroke="#000000" stroke-width="7" stroke-linecap="round" stroke-linejoin="round" fill="none"/>
  <path d="M 167.00 154.00 L 181.00 172.00" stroke="#000000" stroke-width="7" stroke-linecap="round" stroke-linejoin="round" fill="none"/>
  <path d="M 195.00 156.00 L 193.00 159.00" stroke="#000000" stroke-width="7" stroke-linecap="round" stroke-linejoin="round" fill="none"/>
  <path d="M 172.00 163.00 L 175.00 166.00" stroke="#000000" stroke-width="7" stroke-linecap="round" stroke-linejoin="round" fill="none"/>
  <path d="M 123.00 166.00 L 131.00 175.00" stroke="#000000" stroke-width="7" stroke-linecap="round" stroke-linejoin="round" fill="none"/>
  <path d="M 188.00 168.00 Q 185.00 172.00 186.50 173.50 Q 188.00 175.00 190.00 175.00 Q 192.00 175.00 191.50 176.50 Q 191.00 178.00 192.50 179.00 Q 194.00 180.00 192.00 178.50 L 190.00 177.00" stroke="#000000" stroke-width="7" stroke-linecap="round" stroke-linejoin="round" fill="none"/>
  <path d="M 186.00 169.00 Q 184.00 171.00 185.00 173.00 Q 186.00 175.00 185.00 174.00 L 184.00 173.00" stroke="#000000" stroke-width="7" stroke-linecap="round" stroke-linejoin="round" fill="none"/>
  <path d="M 131.00 177.00 Q 143.00 193.00 145.50 198.50 Q 148.00 204.00 147.50 205.00 Q 147.00 206.00 150.00 209.50 Q 153.00 213.00 153.00 215.00 L 153.00 217.00" stroke="#000000" stroke-width="7" stroke-linecap="round" stroke-linejoin="round" fill="none"/>
  <path d="M 131.00 178.00 Q 134.00 180.00 133.00 182.50 Q 132.00 185.00 131.50 182.50 L 131.00 180.00" stroke="#000000" stroke-width="7" stroke-linecap="round" stroke-linejoin="round" fill="none"/>
  <path d="M 134.00 182.00 Q 142.00 193.00 144.50 198.50 Q 147.00 204.00 146.00 203.50 L 145.00 203.00" stroke="#000000" stroke-width="7" stroke-linecap="round" stroke-linejoin="round" fill="none"/>
  <path d="M 100.00 183.00 L 102.00 190.00" stroke="#000000" stroke-width="7" stroke-linecap="round" stroke-linejoin="round" fill="none"/>
  <path d="M 132.00 187.00 Q 147.00 251.00 149.50 253.00 Q 152.00 255.00 160.00 252.50 Q 168.00 250.00 166.00 249.00 Q 164.00 248.00 164.50 246.00 Q 165.00 244.00 159.50 231.50 L 154.00 219.00" stroke="#000000" stroke-width="7" stroke-linecap="round" stroke-linejoin="round" fill="none"/>
  <path d="M 132.00 188.00 Q 146.00 251.00 149.00 253.50 Q 152.00 256.00 159.50 254.00 Q 167.00 252.00 168.00 251.00 Q 169.00 250.00 168.00 248.50 L 167.00 247.00" stroke="#000000" stroke-width="7" stroke-linecap="round" stroke-linejoin="round" fill="none"/>
  <path d="M 116.00 196.00 L 116.00 204.00" stroke="#000000" stroke-width="7" stroke-linecap="round" stroke-linejoin="round" fill="none"/>
  <path d="M 142.00 196.00 L 143.00 199.00" stroke="#000000" stroke-width="7" stroke-linecap="round" stroke-linejoin="round" fill="none"/>
  <path d="M 115.00 199.00 L 115.00 200.00" stroke="#000000" stroke-width="7" stroke-linecap="round" stroke-linejoin="round" fill="none"/>
  <path d="M 118.00 204.00 Q 119.00 209.00 118.00 208.00 L 117.00 207.00" stroke="#000000" stroke-width="7" stroke-linecap="round" stroke-linejoin="round" fill="none"/>
  <path d="M 147.00 207.00 L 151.00 213.00" stroke="#000000" stroke-width="7" stroke-linecap="round" stroke-linejoin="round" fill="none"/>
  <path d="M 136.00 208.00 L 136.00 211.00" stroke="#000000" stroke-width="7" stroke-linecap="round" stroke-linejoin="round" fill="none"/>
  <path d="M 147.00 208.00 L 148.00 210.00" stroke="#000000" stroke-width="7" stroke-linecap="round" stroke-linejoin="round" fill="none"/>
  <path d="M 107.00 210.00 L 107.00 213.00" stroke="#000000" stroke-width="7" stroke-linecap="round" stroke-linejoin="round" fill="none"/>
  <path d="M 119.00 212.00 L 121.00 221.00" stroke="#000000" stroke-width="7" stroke-linecap="round" stroke-linejoin="round" fill="none"/>
  <path d="M 121.00 223.00 L 121.00 224.00" stroke="#000000" stroke-width="7" stroke-linecap="round" stroke-linejoin="round" fill="none"/>
  <path d="M 122.00 227.00 L 122.00 228.00" stroke="#000000" stroke-width="7" stroke-linecap="round" stroke-linejoin="round" fill="none"/>
  <path d="M 140.00 227.00 L 140.00 230.00" stroke="#000000" stroke-width="7" stroke-linecap="round" stroke-linejoin="round" fill="none"/>
  <path d="M 111.00 231.00 L 112.00 233.00" stroke="#000000" stroke-width="7" stroke-linecap="round" stroke-linejoin="round" fill="none"/>
  <path d="M 160.00 232.00 L 160.00 233.00" stroke="#000000" stroke-width="7" stroke-linecap="round" stroke-linejoin="round" fill="none"/>
  <path d="M 161.00 235.00 L 162.00 237.00" stroke="#000000" stroke-width="7" stroke-linecap="round" stroke-linejoin="round" fill="none"/>
  <path d="M 124.00 237.00 L 124.00 238.00" stroke="#000000" stroke-width="7" stroke-linecap="round" stroke-linejoin="round" fill="none"/>
  <path d="M 125.00 241.00 L 125.00 242.00" stroke="#000000" stroke-width="7" stroke-linecap="round" stroke-linejoin="round" fill="none"/>
  <path d="M 144.00 245.00 L 144.00 248.00" stroke="#000000" stroke-width="7" stroke-linecap="round" stroke-linejoin="round" fill="none"/>
  <path d="M 115.00 247.00 L 116.00 251.00" stroke="#000000" stroke-width="7" stroke-linecap="round" stroke-linejoin="round" fill="none"/>
  <path d="M 145.00 250.00 L 151.00 256.00" stroke="#000000" stroke-width="7" stroke-linecap="round" stroke-linejoin="round" fill="none"/>
  <path d="M 169.00 251.00 L 171.00 253.00" stroke="#000000" stroke-width="7" stroke-linecap="round" stroke-linejoin="round" fill="none"/>
  <path d="M 128.00 252.00 L 134.00 259.00" stroke="#000000" stroke-width="7" stroke-linecap="round" stroke-linejoin="round" fill="none"/>
  <path d="M 168.00 252.00 L 168.00 253.00" stroke="#000000" stroke-width="7" stroke-linecap="round" stroke-linejoin="round" fill="none"/>
  <path d="M 146.00 253.00 Q 149.00 256.00 147.50 257.00 Q 146.00 258.00 147.00 257.50 L 148.00 257.00" stroke="#000000" stroke-width="7" stroke-linecap="round" stroke-linejoin="round" fill="none"/>
  <path d="M 165.00 253.00 L 165.00 254.00" stroke="#000000" stroke-width="7" stroke-linecap="round" stroke-linejoin="round" fill="none"/>
  <path d="M 117.00 255.00 L 125.00 261.00" stroke="#000000" stroke-width="7" stroke-linecap="round" stroke-linejoin="round" fill="none"/>
  <path d="M 157.00 255.00 L 161.00 255.00" stroke="#000000" stroke-width="7" stroke-linecap="round" stroke-linejoin="round" fill="none"/>
  <path d="M 129.00 256.00 Q 132.00 261.00 130.00 260.50 Q 128.00 260.00 129.00 259.50 L 130.00 259.00" stroke="#000000" stroke-width="7" stroke-linecap="round" stroke-linejoin="round" fill="none"/>
  <path d="M 153.00 256.00 L 151.00 258.00" stroke="#000000" stroke-width="7" stroke-linecap="round" stroke-linejoin="round" fill="none"/>
  <path d="M 175.00 257.00 L 179.00 261.00" stroke="#000000" stroke-width="7" stroke-linecap="round" stroke-linejoin="round" fill="none"/>
  <path d="M 139.00 259.00 L 138.00 260.00" stroke="#000000" stroke-width="7" stroke-linecap="round" stroke-linejoin="round" fill="none"/>
  <path d="M 180.00 263.00 L 184.00 267.00" stroke="#000000" stroke-width="7" stroke-linecap="round" stroke-linejoin="round" fill="none"/>
  <path d="M 190.00 270.00 L 197.00 277.00" stroke="#000000" stroke-width="7" stroke-linecap="round" stroke-linejoin="round" fill="none"/>
  <path d="M 192.00 273.00 L 195.00 276.00" stroke="#000000" stroke-width="7" stroke-linecap="round" stroke-linejoin="round" fill="none"/>
  <path d="M 200.00 278.00 L 211.00 287.00" stroke="#000000" stroke-width="7" stroke-linecap="round" stroke-linejoin="round" fill="none"/>
</svg>